<svg xmlns="http://www.w3.org/2000/svg" viewBox="0 0 512 512">
  <rect width="512" height="512" rx="112" fill="#006a6a"/>
  <!-- Spa / Leaf base -->
  <path d="M 256 120 C 180 120 120 180 120 256 C 120 332 180 392 256 392 C 332 392 392 332 392 256 C 392 180 332 120 256 120 Z M 256 360 C 198 360 152 314 152 256 C 152 198 198 152 256 152 C 314 152 360 198 360 256 C 360 314 314 360 256 360 Z" fill="#ffffff" />
  <!-- Inner core -->
  <path d="M 256 186 C 220 186 190 216 190 256 C 190 296 220 326 256 326 C 292 326 322 296 322 256 C 322 216 292 186 256 186 Z" fill="#8dedec" />
  <!-- Leaf detail -->
  <path d="M 256 152 C 285 152 310 170 320 196 C 295 198 274 218 270 244 L 256 244 L 256 152 Z" fill="#ffffff" opacity="0.8" />
  <path d="M 256 152 L 256 244 L 242 244 C 238 218 217 198 192 196 C 202 170 227 152 256 152 Z" fill="#ffffff" opacity="0.8" />
</svg>
